HIERARCHY
ROOT Hips
{
	OFFSET 0.000000 0.000000 0.000000
	CHANNELS 6 Xposition Yposition Zposition Xrotation Yrotation Zrotation
	JOINT LeftUpLeg_virtual
	{
		OFFSET 0.000000 0.000000 0.000000
		CHANNELS 3 Xrotation Yrotation Zrotation
		JOINT LeftUpLeg
		{
			OFFSET 10.205400 -3.823500 0.155100
			CHANNELS 3 Xrotation Yrotation Zrotation
			JOINT LeftLeg
			{
				OFFSET 0.708757 -12.982077 0.567790
				CHANNELS 3 Xrotation Yrotation Zrotation
				JOINT LeftFoot
				{
					OFFSET -0.708756 -10.717838 -2.184338
					CHANNELS 3 Xrotation Yrotation Zrotation
					JOINT LeftToeBase
					{
						OFFSET 0.108149 -7.191104 7.560241
						CHANNELS 3 Xrotation Yrotation Zrotation
						JOINT LeftToe_End
						{
							OFFSET 0.070230 0.081724 4.490308
							CHANNELS 3 Xrotation Yrotation Zrotation
							End Site
							{
								OFFSET 0 0 0
							}
						}
					}
				}
			}
		}
	}
	JOINT RightUpLeg_virtual
	{
		OFFSET 0.000000 0.000000 0.000000
		CHANNELS 3 Xrotation Yrotation Zrotation
		JOINT RightUpLeg
		{
			OFFSET -10.205400 -3.823500 0.005500
			CHANNELS 3 Xrotation Yrotation Zrotation
			JOINT RightLeg
			{
				OFFSET -0.708756 -12.982134 0.610632
				CHANNELS 3 Xrotation Yrotation Zrotation
				JOINT RightFoot
				{
					OFFSET 0.708754 -10.717769 -1.945823
					CHANNELS 3 Xrotation Yrotation Zrotation
					JOINT RightToeBase
					{
						OFFSET -0.108140 -7.191069 7.372968
						CHANNELS 3 Xrotation Yrotation Zrotation
						JOINT RightToe_End
						{
							OFFSET -0.070227 0.081735 4.479403
							CHANNELS 3 Xrotation Yrotation Zrotation
							End Site
							{
								OFFSET 0 0 0
							}
						}
					}
				}
			}
		}
	}
	JOINT Spine_virtual
	{
		OFFSET 0.000000 0.000000 0.000000
		CHANNELS 3 Xrotation Yrotation Zrotation
		JOINT Spine
		{
			OFFSET 0.000000 6.876099 0.125700
			CHANNELS 3 Xrotation Yrotation Zrotation
			JOINT Spine1
			{
				OFFSET 0.000000 5.730043 0.104720
				CHANNELS 3 Xrotation Yrotation Zrotation
				JOINT Spine1_split
				{
					OFFSET 0.000000 5.730043 0.104720
					CHANNELS 3 Xrotation Yrotation Zrotation
					JOINT Spine2
					{
						OFFSET 0.000000 5.730043 0.104720
						CHANNELS 3 Xrotation Yrotation Zrotation
						JOINT Neck_virtual
						{
							OFFSET 0.000000 0.000000 0.000000
							CHANNELS 3 Xrotation Yrotation Zrotation
							JOINT Neck
							{
								OFFSET 0.000000 10.314075 0.188496
								CHANNELS 3 Xrotation Yrotation Zrotation
								JOINT Head
								{
									OFFSET 0.000000 7.643700 -2.377400
									CHANNELS 3 Xrotation Yrotation Zrotation
									JOINT HeadTop_End
									{
										OFFSET 0.000000 43.788605 -13.619600
										CHANNELS 3 Xrotation Yrotation Zrotation
										End Site
										{
											OFFSET 0 0 0
										}
									}
								}
							}
						}
						JOINT LeftShoulder_virtual
						{
							OFFSET 0.000000 0.000000 0.000000
							CHANNELS 3 Xrotation Yrotation Zrotation
							JOINT LeftShoulder
							{
								OFFSET 2.196100 4.412489 0.087492
								CHANNELS 3 Xrotation Yrotation Zrotation
								JOINT LeftShoulder_split
								{
									OFFSET 2.196100 4.412489 0.087492
									CHANNELS 3 Xrotation Yrotation Zrotation
									JOINT LeftArm
									{
										OFFSET 8.771219 -2.981674 -0.026999
										CHANNELS 3 Xrotation Yrotation Zrotation
										JOINT LeftForeArm
										{
											OFFSET 8.512804 0.000000 -0.000000
											CHANNELS 3 Xrotation Yrotation Zrotation
											JOINT LeftHand
											{
												OFFSET 18.484802 0.000000 -0.000000
												CHANNELS 3 Xrotation Yrotation Zrotation
												End Site
												{
													OFFSET 0 0 0
												}
											}
										}
									}
								}
							}
						}
						JOINT RightShoulder_virtual
						{
							OFFSET 0.000000 0.000000 0.000000
							CHANNELS 3 Xrotation Yrotation Zrotation
							JOINT RightShoulder
							{
								OFFSET -2.196100 4.412496 0.070690
								CHANNELS 3 Xrotation Yrotation Zrotation
								JOINT RightShoulder_split
								{
									OFFSET -2.196100 4.412496 0.070690
									CHANNELS 3 Xrotation Yrotation Zrotation
									JOINT RightArm
									{
										OFFSET -8.771282 -2.981682 -0.094208
										CHANNELS 3 Xrotation Yrotation Zrotation
										JOINT RightForeArm
										{
											OFFSET -8.494598 0.000000 0.000000
											CHANNELS 3 Xrotation Yrotation Zrotation
											JOINT RightHand
											{
												OFFSET -18.483803 0.000000 0.000001
												CHANNELS 3 Xrotation Yrotation Zrotation
												End Site
												{
													OFFSET 0 0 0
												}
											}
										}
									}
								}
							}
						}
					}
				}
			}
		}
	}
}
MOTION
Frames: 5
Frame Time: 0.03333333
1.722922 26.366369 6.260774 0.000000 0.000000 0.000000 -0.598051 -35.783071 -3.242656 -46.355596 -2.675689 26.378059 68.651713 0.263156 -1.164860 -21.857398 -7.788255 -14.253824 -3.159725 -0.213918 1.967790 0.000000 0.000000 0.000000 -1.261679 -31.963421 -3.233710 1.018991 -17.538300 -31.240005 52.370837 2.505723 -7.977947 -31.277847 -20.673267 30.704750 -10.232753 -0.050153 0.650458 0.000000 0.000000 0.000000 -0.548549 -29.525398 -3.114812 12.137252 9.026266 -4.435999 2.082680 2.107881 -2.014818 1.031724 -0.278315 0.859280 0.000000 0.000000 0.000000 3.854409 1.388216 -1.433392 -11.270027 10.239884 6.282145 0.811753 8.764056 -0.787351 0.000000 0.000000 0.000000 2.788468 1.854499 -1.558760 0.744685 0.012583 -5.309495 -1.722431 -3.082528 -0.012818 -59.307858 2.582560 -46.133208 -179.545661 -73.144851 -178.883570 0.000000 0.000000 0.000000 2.817800 1.313502 -1.817743 3.468080 22.699241 -4.586287 -7.976043 -4.011327 2.260615 -42.638487 18.071236 48.678779 -178.594448 62.392535 177.605546 0.000000 0.000000 0.000000 
1.823726 26.144535 5.422625 0.000000 0.000000 0.000000 -1.873904 -38.985063 -3.372735 -45.614298 -2.249657 28.185385 69.377271 0.387343 -1.676814 -20.542303 -6.515792 -15.134454 -3.574456 -0.296839 2.246079 0.000000 0.000000 0.000000 -2.608817 -35.076477 -3.322850 -0.628563 -17.048270 -32.747113 54.689820 0.928633 -6.974293 -34.256493 -22.529208 30.575274 -6.629056 -0.247874 -0.163407 0.000000 0.000000 0.000000 -2.042834 -32.816173 -3.156497 12.378497 8.639870 -3.681539 2.228255 1.985848 -1.851813 0.955148 -0.141388 0.968679 0.000000 0.000000 0.000000 3.866271 1.326609 -1.295754 -10.724806 10.949281 5.834204 1.798010 11.262714 -1.767432 0.000000 0.000000 0.000000 2.975169 1.750917 -1.382367 0.850907 0.101779 -5.095628 -1.375580 -3.139343 -0.099335 -60.263183 3.463774 -46.269914 -179.799962 -73.178216 -179.357585 0.000000 0.000000 0.000000 2.891337 1.184477 -1.674408 3.606088 22.391974 -5.037005 -7.370706 -3.404317 2.411811 -45.094053 18.348579 52.473505 -177.734937 62.976735 176.755515 0.000000 0.000000 0.000000 
1.847039 25.962612 4.560131 0.000000 0.000000 0.000000 -2.936475 -41.332439 -3.403843 -45.189580 -2.195176 29.685901 69.412726 0.277752 -2.033319 -18.485296 -5.609573 -16.193726 -3.817449 -0.300665 2.349757 0.000000 0.000000 0.000000 -3.840378 -37.579564 -3.289528 -2.308246 -16.213969 -34.316783 56.546303 0.187103 -6.006004 -35.855163 -23.440135 31.605215 -4.656368 -0.372815 -0.649530 0.000000 0.000000 0.000000 -3.202622 -35.465535 -3.051406 12.478106 8.294144 -2.907958 2.348493 1.846542 -1.661384 0.956429 -0.066850 1.018337 0.000000 0.000000 0.000000 3.831875 1.259389 -1.133572 -10.063809 11.483899 5.201928 2.744017 13.132932 -2.648341 0.000000 0.000000 0.000000 3.181429 1.627275 -1.196021 0.970459 0.255477 -5.224966 -1.152570 -3.067979 -0.257154 -60.650850 4.114034 -46.461392 179.889889 -73.781493 -179.820562 0.000000 0.000000 0.000000 3.040568 1.063151 -1.498448 3.682603 21.740919 -5.414621 -6.704547 -2.850837 2.502781 -47.557347 18.365585 56.363592 -177.375068 63.018290 176.352588 0.000000 0.000000 0.000000 
1.790840 25.848171 3.690054 0.000000 0.000000 0.000000 -3.710463 -42.901292 -3.293975 -45.031615 -2.507831 30.822403 68.624557 0.123712 -2.203517 -15.781798 -5.078364 -17.064126 -3.729455 -0.209646 2.098162 0.000000 0.000000 0.000000 -4.899553 -39.404843 -3.156185 -3.792760 -15.271046 -35.672709 57.493479 0.243673 -5.208682 -36.249737 -23.487960 33.618662 -3.933469 -0.401553 -0.892784 0.000000 0.000000 0.000000 -3.998823 -37.425243 -2.798986 12.427802 7.959687 -2.153083 2.435767 1.684434 -1.450138 0.973020 -0.024770 1.016693 0.000000 0.000000 0.000000 3.767158 1.180835 -0.945358 -9.218186 11.878713 4.424795 3.612565 14.519942 -3.494572 0.000000 0.000000 0.000000 3.382008 1.484398 -1.004751 1.104497 0.435174 -5.668573 -1.083387 -2.898598 -0.425565 -60.461675 4.541216 -46.699615 179.568337 -74.679834 179.799389 0.000000 0.000000 0.000000 3.249226 0.958137 -1.288232 3.719018 20.866732 -5.686120 -6.112338 -2.520531 2.440067 -49.872518 18.304378 60.028729 -177.481591 63.199385 176.372751 0.000000 0.000000 0.000000 
1.698153 25.831078 2.867136 0.000000 0.000000 0.000000 -4.201355 -43.881872 -3.023197 -45.030051 -3.012072 31.519158 67.174111 0.066190 -2.198669 -12.679857 -4.904293 -17.383774 -3.301798 -0.039279 1.370824 0.000000 0.000000 0.000000 -5.776659 -40.660519 -2.940588 -4.759207 -14.650846 -36.522377 57.487906 0.562297 -4.536494 -36.423001 -23.006338 35.017663 -3.061009 -0.356896 -0.874821 0.000000 0.000000 0.000000 -4.432913 -38.873185 -2.379055 12.284413 7.644815 -1.464775 2.496864 1.522613 -1.240128 0.938281 0.013428 0.919832 0.000000 0.000000 0.000000 3.692046 1.082015 -0.747485 -8.207950 12.185758 3.566833 4.386330 15.542049 -4.353038 0.000000 0.000000 0.000000 3.545282 1.334160 -0.819372 1.240691 0.624543 -6.296667 -1.129010 -2.813419 -0.534544 -59.687206 4.767110 -46.979909 179.250037 -75.463447 179.504666 0.000000 0.000000 0.000000 3.474189 0.868866 -1.071535 3.728687 19.901018 -5.871863 -5.535672 -2.356282 2.343455 -51.903902 18.465181 63.243085 -177.914434 63.856811 176.679468 0.000000 0.000000 0.000000 
